M48
; DRILL file {KiCad 7.0.9} date Mon Oct  7 22:48:38 2024
; FORMAT={-:-/ absolute / metric / decimal}
; #@! TF.CreationDate,2024-10-07T22:48:38-04:00
; #@! TF.GenerationSoftware,Kicad,Pcbnew,7.0.9
; #@! TF.FileFunction,Plated,1,4,PTH
FMAT,2
METRIC
; #@! TA.AperFunction,Plated,PTH,ViaDrill
T1C0.203
; #@! TA.AperFunction,Plated,PTH,ViaDrill
T2C0.305
; #@! TA.AperFunction,Plated,PTH,ViaDrill
T3C0.400
; #@! TA.AperFunction,Plated,PTH,ComponentDrill
T4C0.600
; #@! TA.AperFunction,Plated,PTH,ComponentDrill
T5C0.900
; #@! TA.AperFunction,Plated,PTH,ComponentDrill
T6C1.000
; #@! TA.AperFunction,Plated,PTH,ComponentDrill
T7C3.700
%
G90
G05
T1
X145.491Y-74.879
X146.101Y-74.879
X206.756Y-137.084
X208.128Y-137.008
X218.264Y-125.281
X218.264Y-126.272
X218.924Y-125.256
X218.924Y-126.246
X219.635Y-125.256
X219.635Y-126.246
T2
X62.738Y-117.602
X63.754Y-117.602
X71.831Y-120.142
X71.857Y-107.086
X71.857Y-113.64
X71.958Y-84.988
X72.822Y-99.035
X72.847Y-92.481
X76.225Y-92.227
X76.276Y-107.925
X76.276Y-114.427
X76.302Y-98.831
X77.368Y-87.249
X80.264Y-128.651
X80.34Y-78.435
X80.493Y-81.915
X80.594Y-104.038
X80.772Y-93.472
X80.772Y-111.252
X80.772Y-118.364
X80.772Y-119.888
X81.382Y-99.602
X82.042Y-118.364
X82.042Y-119.38
X82.042Y-120.396
X82.474Y-123.241
X82.804Y-92.964
X82.804Y-94.488
X82.804Y-96.266
X83.82Y-90.17
X83.82Y-121.412
X84.836Y-92.964
X84.836Y-94.488
X84.836Y-96.266
X85.09Y-118.11
X85.801Y-120.955
X86.792Y-128.676
X86.868Y-78.461
X87.02Y-81.864
X87.046Y-104.013
X87.122Y-93.472
X87.173Y-114.656
X87.554Y-124.384
X87.63Y-118.11
X88.062Y-99.678
X90.17Y-118.11
X92.71Y-118.11
X93.243Y-128.676
X93.396Y-78.435
X93.548Y-81.94
X93.548Y-104.038
X94.005Y-124.358
X94.336Y-114.706
X94.412Y-99.729
X95.25Y-118.11
X95.91Y-121.412
X97.282Y-119.024
X98.374Y-113.919
X98.4Y-85.319
X98.4Y-91.846
X98.425Y-107.467
X98.45Y-98.349
X102.683Y-99.136
X102.718Y-121.285
X102.734Y-92.786
X102.768Y-114.935
X102.81Y-86.106
X102.845Y-108.255
X105.258Y-121.412
X105.41Y-118.11
X108.192Y-120.142
X108.217Y-107.086
X108.217Y-113.64
X108.319Y-84.988
X109.118Y-114.706
X109.183Y-99.035
X109.208Y-92.481
X110.816Y-102.9
X111.18Y-101.965
X112.586Y-92.227
X112.637Y-107.925
X112.637Y-114.427
X112.637Y-120.879
X112.662Y-98.831
X113.729Y-87.249
X115.086Y-105.9
X115.098Y-106.903
X116.625Y-128.651
X116.701Y-78.435
X116.853Y-81.915
X116.955Y-104.038
X117.742Y-99.602
X118.11Y-118.11
X118.835Y-123.241
X119.482Y-114.706
X119.634Y-94.996
X119.99Y-64.008
X121.92Y-94.234
X121.92Y-95.758
X121.92Y-97.536
X122.682Y-91.948
X123.153Y-128.676
X123.229Y-78.461
X123.381Y-81.864
X123.407Y-104.013
X123.915Y-124.384
X123.952Y-94.234
X123.952Y-95.758
X123.952Y-97.536
X124.423Y-99.678
X124.46Y-118.11
X126.238Y-94.996
X126.238Y-114.605
X127.457Y-121.412
X129.604Y-128.676
X129.757Y-78.435
X129.909Y-81.94
X129.909Y-104.038
X130.366Y-124.358
X130.773Y-99.729
X130.81Y-118.11
X131.47Y-64.059
X132.994Y-64.059
X133.643Y-119.024
X134.735Y-113.919
X134.76Y-85.319
X134.76Y-91.846
X134.786Y-107.467
X134.811Y-98.349
X139.044Y-99.136
X139.078Y-121.285
X139.095Y-92.786
X139.129Y-114.935
X139.171Y-86.106
X139.205Y-108.255
X142.494Y-76.225
X143.154Y-121.463
X143.51Y-118.11
X143.586Y-93.66
X143.606Y-109.24
X143.739Y-76.352
X143.764Y-73.33
X144.475Y-64.059
X145.644Y-72.263
X145.721Y-73.151
X145.847Y-64.059
X146.533Y-73.177
X149.086Y-95.92
X149.166Y-111.48
X149.2Y-76.606
X149.54Y-75.869
X149.86Y-118.11
X150.622Y-121.463
X152.261Y-120.142
X152.287Y-107.086
X152.287Y-113.64
X152.388Y-84.988
X153.252Y-99.035
X153.277Y-92.481
X154.76Y-102.436
X155.346Y-103.25
X156.655Y-92.227
X156.706Y-107.925
X156.706Y-114.427
X156.706Y-120.879
X156.732Y-98.831
X156.833Y-73.105
X157.124Y-73.863
X157.378Y-64.008
X157.798Y-87.249
X158.496Y-75.692
X158.902Y-64.11
X159.188Y-76.118
X159.396Y-106.07
X159.412Y-107.073
X160.02Y-118.11
X160.694Y-128.651
X160.77Y-78.435
X160.884Y-75.082
X160.923Y-81.915
X161.024Y-104.038
X161.747Y-75.082
X161.798Y-95.504
X161.812Y-99.602
X161.9Y-114.757
X162.904Y-123.241
X163.83Y-94.234
X163.83Y-95.758
X163.83Y-97.536
X164.592Y-92.202
X165.862Y-94.234
X165.862Y-95.758
X165.862Y-97.536
X166.37Y-118.11
X167.222Y-128.676
X167.298Y-78.461
X167.45Y-81.864
X167.476Y-104.013
X167.742Y-114.656
X167.894Y-95.504
X167.984Y-124.384
X168.3Y-121.615
X168.492Y-99.678
X168.656Y-139.954
X168.707Y-132.283
X170.332Y-64.008
X170.84Y-141.681
X171.45Y-106.172
X171.45Y-118.11
X172.466Y-112.674
X172.466Y-114.554
X172.72Y-121.92
X172.72Y-132.08
X172.72Y-137.16
X173.482Y-112.268
X173.482Y-113.284
X173.482Y-114.3
X173.482Y-115.316
X173.482Y-116.332
X173.482Y-117.348
X173.482Y-118.364
X173.482Y-119.38
X173.673Y-128.676
X173.826Y-78.435
X173.978Y-81.94
X173.978Y-104.038
X174.435Y-124.358
X174.445Y-114.485
X174.447Y-112.674
X174.752Y-106.172
X174.842Y-99.729
X176.936Y-133.401
X177.749Y-118.996
X177.8Y-137.16
X178.816Y-114.046
X178.83Y-85.319
X178.83Y-91.846
X178.88Y-98.349
X179.07Y-104.394
X180.086Y-104.14
X182.372Y-112.522
X182.728Y-141.834
X182.88Y-137.16
X183.016Y-121.294
X183.113Y-99.136
X183.134Y-114.808
X183.164Y-92.786
X183.225Y-108.837
X183.24Y-86.106
X184.15Y-112.522
X185.522Y-125.171
X185.572Y-128.118
X187.96Y-115.697
X187.96Y-123.241
X187.96Y-137.16
X187.985Y-101.27
X188.265Y-113.157
X188.749Y-84.988
X189.56Y-121.056
X189.586Y-108.077
X189.612Y-99.035
X189.638Y-92.481
X192.616Y-103.41
X193.016Y-92.227
X193.04Y-120.879
X193.04Y-137.16
X193.065Y-108.052
X193.065Y-114.427
X193.092Y-98.831
X193.751Y-141.732
X194.159Y-87.249
X194.716Y-78.08
X195.682Y-100.889
X196.494Y-115.646
X196.545Y-75.946
X196.698Y-140.056
X196.85Y-133.35
X196.952Y-104.995
X197.131Y-78.435
X197.283Y-81.915
X197.358Y-103.988
X198.172Y-99.602
X198.476Y-77.064
X198.476Y-123.342
X199.108Y-111.436
X199.847Y-111.1
X199.898Y-123.088
X200.637Y-122.752
X200.889Y-108.653
X201.473Y-109.271
X201.778Y-122.784
X202.362Y-117.831
X202.569Y-122.601
X202.819Y-119.939
X202.895Y-117.323
X203.454Y-92.888
X203.556Y-128.6
X203.811Y-81.864
X203.836Y-104.013
X204.14Y-133.782
X204.267Y-139.192
X204.724Y-75.133
X204.852Y-99.678
X205.156Y-95.047
X205.334Y-133.96
X205.715Y-86.665
X205.765Y-123.368
X206.197Y-116.154
X206.477Y-133.756
X206.706Y-120.117
X208.305Y-120.726
X208.305Y-133.858
X209.144Y-83.16
X209.525Y-133.909
X209.55Y-120.625
X209.575Y-111.277
X209.677Y-94.107
X210.033Y-128.676
X210.186Y-78.435
X210.269Y-112.2
X210.339Y-104.038
X210.718Y-133.782
X210.769Y-87.986
X210.769Y-139.167
X210.845Y-124.206
X211.202Y-99.729
X211.303Y-108.61
X211.988Y-109.246
X212.395Y-121.818
X212.496Y-119.329
X212.954Y-84.226
X213.157Y-128.422
X213.436Y-96.926
X213.868Y-84.252
X214.071Y-112.446
X214.122Y-90.526
X214.3Y-117.729
X215.131Y-67.211
X215.189Y-68.021
X216.333Y-128.202
X216.967Y-104.242
X217.09Y-127.435
X218.059Y-66.802
X218.22Y-122.924
X218.313Y-96.901
X218.846Y-84.988
X219.012Y-128.697
X219.126Y-96.917
X219.354Y-91.897
X219.474Y-99.136
X219.558Y-86.411
X219.596Y-85.301
X219.635Y-108.255
X219.812Y-119.532
X220.218Y-83.464
X220.243Y-115.9
X220.717Y-82.823
X220.804Y-120.455
X220.854Y-123.859
X221.386Y-79.451
X221.818Y-123.673
X222.758Y-113.894
X223.622Y-113.944
X223.723Y-80.416
X223.749Y-69.494
X224.688Y-99.771
X224.688Y-101.143
X224.688Y-102.514
X224.993Y-80.416
X225.105Y-91.259
X225.323Y-129.794
X225.349Y-130.708
X225.63Y-125.129
X225.908Y-91.135
X226.06Y-99.771
X226.06Y-101.143
X226.06Y-102.514
X226.314Y-114.859
X226.314Y-115.671
X226.822Y-71.628
X227.178Y-78.943
X227.248Y-72.32
X227.635Y-96.977
X227.813Y-89.23
X228.263Y-85.813
X228.397Y-86.614
X228.448Y-97.028
X229.203Y-84.715
X229.692Y-90.653
X229.718Y-85.344
X230.251Y-130.556
X230.48Y-96.825
X230.854Y-64.237
X230.937Y-71.577
X231.004Y-72.387
X231.063Y-130.556
X231.394Y-96.825
X231.851Y-114.859
X231.914Y-115.669
X233.02Y-96.368
X233.02Y-108.915
X233.02Y-109.779
X233.07Y-95.453
X236.036Y-64.719
X236.061Y-65.938
T3
X76.276Y-120.879
X77.216Y-137.414
X77.216Y-138.43
X197.054Y-128.651
T7
X56.947Y-66.904
X234.925Y-139.751
T4
X203.2Y-138.215G85X203.2Y-139.115
G05
X203.2Y-142.575G85X203.2Y-143.175
G05
X211.84Y-138.215G85X211.84Y-139.115
G05
X211.84Y-142.575G85X211.84Y-143.175
G05
T5
X58.598Y-130.768G85X58.598Y-128.668
G05
X62.698Y-134.378G85X60.598Y-134.378
G05
T6
X64.588Y-128.468G85X64.588Y-130.968
G05
T0
M30
