G04 #@! TF.GenerationSoftware,KiCad,Pcbnew,7.0.9*
G04 #@! TF.CreationDate,2024-10-07T22:48:35-04:00*
G04 #@! TF.ProjectId,Digital Clock,44696769-7461-46c2-9043-6c6f636b2e6b,rev?*
G04 #@! TF.SameCoordinates,Original*
G04 #@! TF.FileFunction,Soldermask,Top*
G04 #@! TF.FilePolarity,Negative*
%FSLAX46Y46*%
G04 Gerber Fmt 4.6, Leading zero omitted, Abs format (unit mm)*
G04 Created by KiCad (PCBNEW 7.0.9) date 2024-10-07 22:48:35*
%MOMM*%
%LPD*%
G01*
G04 APERTURE LIST*
%ADD10R,1.900000X1.300000*%
%ADD11R,0.540000X0.570000*%
%ADD12R,0.790000X0.540000*%
%ADD13R,2.100000X0.740000*%
%ADD14R,1.730000X1.190000*%
%ADD15O,1.500000X4.100000*%
%ADD16O,1.500000X3.600000*%
%ADD17O,3.600000X1.500000*%
%ADD18R,1.400000X1.000000*%
%ADD19R,0.550000X1.100000*%
%ADD20R,0.300000X1.100000*%
%ADD21O,1.100000X2.000000*%
%ADD22O,1.200000X1.800000*%
%ADD23R,0.570000X0.540000*%
%ADD24R,0.840000X0.320000*%
%ADD25R,0.950000X2.100000*%
%ADD26R,2.100000X0.950000*%
%ADD27R,0.900000X0.900000*%
%ADD28R,0.540000X0.790000*%
%ADD29R,1.250000X0.700000*%
%ADD30R,0.400000X0.600000*%
%ADD31C,4.100000*%
%ADD32C,7.400000*%
%ADD33O,0.570000X2.400000*%
%ADD34R,0.740000X1.900000*%
%ADD35R,1.650000X4.500000*%
%ADD36R,1.500000X2.400000*%
%ADD37O,0.950000X0.560000*%
%ADD38R,3.900000X4.180000*%
%ADD39C,7.000000*%
%ADD40O,0.590000X2.050000*%
%ADD41R,1.410000X1.350000*%
%ADD42R,0.300000X1.000000*%
%ADD43R,1.000000X0.300000*%
%ADD44R,2.150000X2.150000*%
%ADD45R,2.700000X3.300000*%
%ADD46R,0.510000X0.400000*%
%ADD47R,2.470000X0.980000*%
%ADD48R,2.470000X3.600000*%
G04 APERTURE END LIST*
D10*
X129930000Y-68544000D03*
X121530000Y-68544000D03*
X129930000Y-64044000D03*
X121530000Y-64044000D03*
D11*
X210703200Y-119606800D03*
X210703200Y-118746800D03*
D12*
X223538900Y-70448600D03*
X222438900Y-70448600D03*
D13*
X193802600Y-130488600D03*
X190702600Y-131758600D03*
X193802600Y-133028600D03*
D14*
X69088000Y-129646000D03*
X69088000Y-126746000D03*
D11*
X216814400Y-68832200D03*
X216814400Y-67972200D03*
D15*
X64588000Y-129717800D03*
D16*
X58597800Y-129717800D03*
D17*
X61648000Y-134378400D03*
D12*
X185581200Y-127228600D03*
X186681200Y-127228600D03*
D18*
X176032000Y-107535200D03*
X176032000Y-105435200D03*
D11*
X173532800Y-110466400D03*
X173532800Y-111326400D03*
D10*
X168792000Y-68544000D03*
X160392000Y-68544000D03*
X168792000Y-64044000D03*
X160392000Y-64044000D03*
D19*
X204320000Y-138115000D03*
X205120000Y-138115000D03*
D20*
X205770000Y-138115000D03*
X206270000Y-138115000D03*
X206770000Y-138115000D03*
X207270000Y-138115000D03*
X207770000Y-138115000D03*
X208270000Y-138115000D03*
X208770000Y-138115000D03*
X209270000Y-138115000D03*
D19*
X209920000Y-138115000D03*
X210720000Y-138115000D03*
D21*
X203200000Y-138665000D03*
D22*
X203200000Y-142875000D03*
D21*
X211840000Y-138665000D03*
D22*
X211840000Y-142875000D03*
D23*
X231570000Y-86614000D03*
X230710000Y-86614000D03*
D24*
X203890800Y-119288800D03*
X203890800Y-119938800D03*
X203890800Y-120588800D03*
X205790800Y-120588800D03*
X205790800Y-119938800D03*
X205790800Y-119288800D03*
D25*
X233052500Y-93627000D03*
X231782500Y-93627000D03*
X230512500Y-93627000D03*
X229242500Y-93627000D03*
X227972500Y-93627000D03*
X226702500Y-93627000D03*
X225432500Y-93627000D03*
X224162500Y-93627000D03*
X222892500Y-93627000D03*
X221622500Y-93627000D03*
X220352500Y-93627000D03*
X219082500Y-93627000D03*
X217812500Y-93627000D03*
X216542500Y-93627000D03*
D26*
X215052500Y-96917000D03*
X215052500Y-98187000D03*
X215052500Y-99457000D03*
X215052500Y-100727000D03*
X215052500Y-101997000D03*
X215052500Y-103267000D03*
X215052500Y-104537000D03*
X215052500Y-105807000D03*
X215052500Y-107077000D03*
X215052500Y-108347000D03*
D25*
X216542500Y-111627000D03*
X217812500Y-111627000D03*
X219082500Y-111627000D03*
X220352500Y-111627000D03*
X221622500Y-111627000D03*
X222892500Y-111627000D03*
X224162500Y-111627000D03*
X225432500Y-111627000D03*
X226702500Y-111627000D03*
X227972500Y-111627000D03*
X229242500Y-111627000D03*
X230512500Y-111627000D03*
X231782500Y-111627000D03*
X233052500Y-111627000D03*
D27*
X226772500Y-102527000D03*
X226772500Y-101127000D03*
X226772500Y-99727000D03*
X225372500Y-102527000D03*
X225372500Y-101127000D03*
X225372500Y-99727000D03*
X223972500Y-102527000D03*
X223972500Y-101127000D03*
X223972500Y-99727000D03*
D12*
X230793200Y-90805000D03*
X231893200Y-90805000D03*
D10*
X142884000Y-68544000D03*
X134484000Y-68544000D03*
X142884000Y-64044000D03*
X134484000Y-64044000D03*
D28*
X201970600Y-118728400D03*
X201970600Y-119828400D03*
D18*
X182636000Y-107535200D03*
X182636000Y-105435200D03*
D11*
X178816000Y-110459800D03*
X178816000Y-111319800D03*
D29*
X207913700Y-126598000D03*
X207913700Y-124698000D03*
X205913700Y-125648000D03*
D10*
X155838000Y-68544000D03*
X147438000Y-68544000D03*
X155838000Y-64044000D03*
X147438000Y-64044000D03*
D11*
X209524600Y-134952000D03*
X209524600Y-135812000D03*
D30*
X84582000Y-121678000D03*
X84582000Y-123178000D03*
X206502000Y-134581200D03*
X206502000Y-136081200D03*
D11*
X180594000Y-110466400D03*
X180594000Y-111326400D03*
D31*
X56946800Y-66903600D03*
D32*
X56946800Y-66903600D03*
D28*
X85775800Y-122927200D03*
X85775800Y-121827200D03*
X143738600Y-75403800D03*
X143738600Y-74303800D03*
D31*
X234924600Y-139750800D03*
D32*
X234924600Y-139750800D03*
D28*
X231819300Y-64220000D03*
X231819300Y-65320000D03*
X210566000Y-94072800D03*
X210566000Y-92972800D03*
D23*
X214108000Y-126302400D03*
X213248000Y-126302400D03*
D33*
X219449700Y-71754800D03*
X218179700Y-71754800D03*
X216909700Y-71754800D03*
X215629700Y-71754800D03*
X214369700Y-71754800D03*
X213099700Y-71754800D03*
X211829700Y-71754800D03*
X210559700Y-71754800D03*
X210559700Y-81254800D03*
X211829700Y-81254800D03*
X213099700Y-81254800D03*
X214369700Y-81254800D03*
X215629700Y-81254800D03*
X216909700Y-81254800D03*
X218179700Y-81254800D03*
X219449700Y-81254800D03*
D12*
X215756400Y-83997800D03*
X216856400Y-83997800D03*
D28*
X184150000Y-111446400D03*
X184150000Y-110346400D03*
X218059000Y-68901400D03*
X218059000Y-67801400D03*
D34*
X211836000Y-88214200D03*
X210566000Y-90814200D03*
X209306000Y-88214200D03*
X208036000Y-90814200D03*
D35*
X77216000Y-124786000D03*
X77216000Y-133786000D03*
D36*
X236042200Y-65328800D03*
D37*
X234492200Y-66328800D03*
X234492200Y-65328800D03*
X234492200Y-64328800D03*
X237592200Y-64328800D03*
X237592200Y-65328800D03*
X237592200Y-66328800D03*
D34*
X205740000Y-88230400D03*
X204470000Y-90830400D03*
X203210000Y-88230400D03*
X201940000Y-90830400D03*
D38*
X188897600Y-78079600D03*
X204497600Y-78079600D03*
D39*
X196697600Y-78079600D03*
D40*
X222442900Y-78868400D03*
X223722900Y-78868400D03*
X224982900Y-78868400D03*
X226252900Y-78868400D03*
X226252900Y-73328400D03*
X224982900Y-73328400D03*
X223722900Y-73328400D03*
X222442900Y-73328400D03*
D28*
X218822400Y-120438600D03*
X218822400Y-121538600D03*
D41*
X231632000Y-89179400D03*
X229632000Y-89179400D03*
D18*
X179334000Y-107552000D03*
X179334000Y-105452000D03*
D28*
X210743800Y-134730400D03*
X210743800Y-135830400D03*
D11*
X142494000Y-75309200D03*
X142494000Y-74449200D03*
D12*
X213126200Y-127521600D03*
X214226200Y-127521600D03*
D11*
X177038000Y-110466400D03*
X177038000Y-111326400D03*
X205333600Y-134952000D03*
X205333600Y-135812000D03*
X141325600Y-75334600D03*
X141325600Y-74474600D03*
D42*
X217940000Y-127635000D03*
X218440000Y-127635000D03*
X218940000Y-127635000D03*
X219440000Y-127635000D03*
X219940000Y-127635000D03*
D43*
X220790000Y-126785000D03*
X220790000Y-126285000D03*
X220790000Y-125785000D03*
X220790000Y-125285000D03*
X220790000Y-124785000D03*
D42*
X219940000Y-123935000D03*
X219440000Y-123935000D03*
X218940000Y-123935000D03*
X218440000Y-123935000D03*
X217940000Y-123935000D03*
D43*
X217090000Y-124785000D03*
X217090000Y-125285000D03*
X217090000Y-125785000D03*
X217090000Y-126285000D03*
X217090000Y-126785000D03*
D44*
X218940000Y-125785000D03*
D23*
X224523800Y-123940200D03*
X223663800Y-123940200D03*
D12*
X185581200Y-125984000D03*
X186681200Y-125984000D03*
D11*
X209499200Y-119606800D03*
X209499200Y-118746800D03*
D12*
X224692800Y-125134000D03*
X223592800Y-125134000D03*
D10*
X187976400Y-109885600D03*
X196376400Y-109885600D03*
X187976400Y-114385600D03*
X196376400Y-114385600D03*
D28*
X204520800Y-94225200D03*
X204520800Y-93125200D03*
D30*
X204139800Y-134581200D03*
X204139800Y-136081200D03*
D45*
X76588000Y-117602000D03*
X69208000Y-117602000D03*
D46*
X205323200Y-117136800D03*
X205323200Y-116136800D03*
X204023200Y-116636800D03*
D30*
X208330800Y-134581200D03*
X208330800Y-136081200D03*
D28*
X219990800Y-120438600D03*
X219990800Y-121538600D03*
D23*
X224547400Y-127521600D03*
X223687400Y-127521600D03*
X214108000Y-125083200D03*
X213248000Y-125083200D03*
D10*
X196376400Y-107035600D03*
X187976400Y-107035600D03*
X196376400Y-102535600D03*
X187976400Y-102535600D03*
D28*
X208295200Y-118677600D03*
X208295200Y-119777600D03*
D11*
X175260000Y-110466400D03*
X175260000Y-111326400D03*
D18*
X172730000Y-107543600D03*
X172730000Y-105443600D03*
D23*
X224547400Y-126327800D03*
X223687400Y-126327800D03*
D28*
X182372000Y-111446400D03*
X182372000Y-110346400D03*
D23*
X213273400Y-123864000D03*
X214133400Y-123864000D03*
D47*
X189702000Y-123176000D03*
X189702000Y-125476000D03*
X189702000Y-127776000D03*
D48*
X195362000Y-125476000D03*
D29*
X203705200Y-126595000D03*
X203705200Y-124695000D03*
X201705200Y-125645000D03*
D11*
X217970600Y-130591400D03*
X217970600Y-129731400D03*
D23*
X231570000Y-84836000D03*
X230710000Y-84836000D03*
M02*
