G04 #@! TF.GenerationSoftware,KiCad,Pcbnew,7.0.9*
G04 #@! TF.CreationDate,2024-10-07T22:48:35-04:00*
G04 #@! TF.ProjectId,Digital Clock,44696769-7461-46c2-9043-6c6f636b2e6b,rev?*
G04 #@! TF.SameCoordinates,Original*
G04 #@! TF.FileFunction,Paste,Bot*
G04 #@! TF.FilePolarity,Positive*
%FSLAX46Y46*%
G04 Gerber Fmt 4.6, Leading zero omitted, Abs format (unit mm)*
G04 Created by KiCad (PCBNEW 7.0.9) date 2024-10-07 22:48:35*
%MOMM*%
%LPD*%
G01*
G04 APERTURE LIST*
%ADD10R,1.000000X1.649600*%
%ADD11R,0.540000X0.790000*%
%ADD12R,1.649600X1.000000*%
%ADD13R,0.790000X0.540000*%
%ADD14R,0.570000X0.540000*%
%ADD15R,0.250000X0.550000*%
%ADD16R,1.350000X0.650000*%
G04 APERTURE END LIST*
D10*
X74446200Y-105995800D03*
X76226200Y-105995800D03*
X76226200Y-109375400D03*
X74446200Y-109375400D03*
X180596200Y-109375400D03*
X178816200Y-109375400D03*
X178816200Y-105995800D03*
X180596200Y-105995800D03*
D11*
X138240200Y-108263600D03*
X138240200Y-109363600D03*
D10*
X191236600Y-90346000D03*
X193016600Y-90346000D03*
X193016600Y-93725600D03*
X191236600Y-93725600D03*
D12*
X166051000Y-126152200D03*
X166051000Y-124372200D03*
X169430600Y-124372200D03*
X169430600Y-126152200D03*
D13*
X210025000Y-127787400D03*
X208925000Y-127787400D03*
D12*
X92121000Y-126152200D03*
X92121000Y-124372200D03*
X95500600Y-124372200D03*
X95500600Y-126152200D03*
D14*
X212306200Y-76900000D03*
X211446200Y-76900000D03*
D11*
X218610200Y-99145000D03*
X218610200Y-100245000D03*
D13*
X87892800Y-78435200D03*
X88992800Y-78435200D03*
D11*
X109182600Y-84954200D03*
X109182600Y-83854200D03*
D13*
X80204400Y-127762000D03*
X79104400Y-127762000D03*
D11*
X148226200Y-111500000D03*
X148226200Y-112600000D03*
D13*
X173664600Y-127787400D03*
X172564600Y-127787400D03*
D11*
X138180600Y-92617200D03*
X138180600Y-93717200D03*
D10*
X191236600Y-118995800D03*
X193016600Y-118995800D03*
X193016600Y-122375400D03*
X191236600Y-122375400D03*
X100166200Y-93725600D03*
X98386200Y-93725600D03*
X98386200Y-90346000D03*
X100166200Y-90346000D03*
D13*
X168322800Y-100592800D03*
X169422800Y-100592800D03*
D11*
X182249800Y-92617200D03*
X182249800Y-93717200D03*
D12*
X121981800Y-126152200D03*
X121981800Y-124372200D03*
X125361400Y-124372200D03*
X125361400Y-126152200D03*
D10*
X154876200Y-90346000D03*
X156656200Y-90346000D03*
X156656200Y-93725600D03*
X154876200Y-93725600D03*
D11*
X101854000Y-114766000D03*
X101854000Y-115866000D03*
D10*
X110807000Y-112495800D03*
X112587000Y-112495800D03*
X112587000Y-115875400D03*
X110807000Y-115875400D03*
D13*
X124253600Y-78435200D03*
X125353600Y-78435200D03*
D10*
X110807000Y-118995800D03*
X112587000Y-118995800D03*
X112587000Y-122375400D03*
X110807000Y-122375400D03*
D12*
X95500600Y-102222400D03*
X95500600Y-104002400D03*
X92121000Y-104002400D03*
X92121000Y-102222400D03*
D13*
X117751200Y-100567400D03*
X118851200Y-100567400D03*
D15*
X145120600Y-73919000D03*
X145770600Y-73919000D03*
X146420600Y-73919000D03*
X146420600Y-75819000D03*
X145770600Y-75819000D03*
X145120600Y-75819000D03*
D16*
X145770600Y-74869000D03*
D13*
X160634400Y-127762000D03*
X159534400Y-127762000D03*
X203522600Y-127762000D03*
X202422600Y-127762000D03*
D12*
X212291000Y-102222400D03*
X212291000Y-104002400D03*
X208911400Y-104002400D03*
X208911400Y-102222400D03*
X205791000Y-80072600D03*
X205791000Y-81852600D03*
X202411400Y-81852600D03*
X202411400Y-80072600D03*
D13*
X93234600Y-127787400D03*
X92134600Y-127787400D03*
D11*
X189586800Y-97984400D03*
X189586800Y-96884400D03*
X109182600Y-113605400D03*
X109182600Y-112505400D03*
D10*
X180596200Y-93725600D03*
X178816200Y-93725600D03*
X178816200Y-90346000D03*
X180596200Y-90346000D03*
D11*
X189612200Y-113605400D03*
X189612200Y-112505400D03*
D12*
X205791000Y-102222400D03*
X205791000Y-104002400D03*
X202411400Y-104002400D03*
X202411400Y-102222400D03*
D11*
X218669800Y-108263600D03*
X218669800Y-109363600D03*
D10*
X191236600Y-112495800D03*
X193016600Y-112495800D03*
X193016600Y-115875400D03*
X191236600Y-115875400D03*
D11*
X72821800Y-84954200D03*
X72821800Y-83854200D03*
D12*
X159551000Y-126152200D03*
X159551000Y-124372200D03*
X162930600Y-124372200D03*
X162930600Y-126152200D03*
X202411400Y-126152200D03*
X202411400Y-124372200D03*
X205791000Y-124372200D03*
X205791000Y-126152200D03*
D10*
X100166200Y-122375400D03*
X98386200Y-122375400D03*
X98386200Y-118995800D03*
X100166200Y-118995800D03*
X216956600Y-93725600D03*
X215176600Y-93725600D03*
X215176600Y-90346000D03*
X216956600Y-90346000D03*
X191236600Y-105995800D03*
X193016600Y-105995800D03*
X193016600Y-109375400D03*
X191236600Y-109375400D03*
D13*
X168322800Y-78435200D03*
X169422800Y-78435200D03*
D10*
X74446200Y-96846000D03*
X76226200Y-96846000D03*
X76226200Y-100225600D03*
X74446200Y-100225600D03*
D12*
X85621000Y-126152200D03*
X85621000Y-124372200D03*
X89000600Y-124372200D03*
X89000600Y-126152200D03*
X79121000Y-126152200D03*
X79121000Y-124372200D03*
X82500600Y-124372200D03*
X82500600Y-126152200D03*
D13*
X211211000Y-78435200D03*
X212311000Y-78435200D03*
D11*
X72796400Y-97984400D03*
X72796400Y-96884400D03*
D12*
X162930600Y-102222400D03*
X162930600Y-104002400D03*
X159551000Y-104002400D03*
X159551000Y-102222400D03*
D10*
X136527000Y-122375400D03*
X134747000Y-122375400D03*
X134747000Y-118995800D03*
X136527000Y-118995800D03*
D11*
X218635600Y-86114800D03*
X218635600Y-87214800D03*
D10*
X100166200Y-115875400D03*
X98386200Y-115875400D03*
X98386200Y-112495800D03*
X100166200Y-112495800D03*
X110807000Y-90346000D03*
X112587000Y-90346000D03*
X112587000Y-93725600D03*
X110807000Y-93725600D03*
D11*
X138206000Y-86114800D03*
X138206000Y-87214800D03*
D10*
X136527000Y-115875400D03*
X134747000Y-115875400D03*
X134747000Y-112495800D03*
X136527000Y-112495800D03*
X110807000Y-83846000D03*
X112587000Y-83846000D03*
X112587000Y-87225600D03*
X110807000Y-87225600D03*
D12*
X89000600Y-80072600D03*
X89000600Y-81852600D03*
X85621000Y-81852600D03*
X85621000Y-80072600D03*
D11*
X153251800Y-113605400D03*
X153251800Y-112505400D03*
X189612200Y-107077600D03*
X189612200Y-105977600D03*
D13*
X117751200Y-78409800D03*
X118851200Y-78409800D03*
D10*
X180596200Y-115875400D03*
X178816200Y-115875400D03*
X178816200Y-112495800D03*
X180596200Y-112495800D03*
D12*
X175930600Y-102222400D03*
X175930600Y-104002400D03*
X172551000Y-104002400D03*
X172551000Y-102222400D03*
D13*
X94420600Y-78435200D03*
X95520600Y-78435200D03*
D12*
X115481800Y-126152200D03*
X115481800Y-124372200D03*
X118861400Y-124372200D03*
X118861400Y-126152200D03*
D10*
X216956600Y-109375400D03*
X215176600Y-109375400D03*
X215176600Y-105995800D03*
X216956600Y-105995800D03*
D11*
X101879400Y-108263600D03*
X101879400Y-109363600D03*
D10*
X100166200Y-87225600D03*
X98386200Y-87225600D03*
X98386200Y-83846000D03*
X100166200Y-83846000D03*
D11*
X109157200Y-97984400D03*
X109157200Y-96884400D03*
X189586800Y-120107800D03*
X189586800Y-119007800D03*
X101819800Y-92617200D03*
X101819800Y-93717200D03*
X72821800Y-91482000D03*
X72821800Y-90382000D03*
D10*
X191236600Y-96846000D03*
X193016600Y-96846000D03*
X193016600Y-100225600D03*
X191236600Y-100225600D03*
X100166200Y-100225600D03*
X98386200Y-100225600D03*
X98386200Y-96846000D03*
X100166200Y-96846000D03*
D12*
X169430600Y-80072600D03*
X169430600Y-81852600D03*
X166051000Y-81852600D03*
X166051000Y-80072600D03*
D11*
X189612200Y-91482000D03*
X189612200Y-90382000D03*
D10*
X191236600Y-83846000D03*
X193016600Y-83846000D03*
X193016600Y-87225600D03*
X191236600Y-87225600D03*
D13*
X211211000Y-100592800D03*
X212311000Y-100592800D03*
D10*
X74446200Y-90346000D03*
X76226200Y-90346000D03*
X76226200Y-93725600D03*
X74446200Y-93725600D03*
D12*
X208911400Y-126152200D03*
X208911400Y-124372200D03*
X212291000Y-124372200D03*
X212291000Y-126152200D03*
D11*
X101819800Y-99145000D03*
X101819800Y-100245000D03*
D10*
X110807000Y-105995800D03*
X112587000Y-105995800D03*
X112587000Y-109375400D03*
X110807000Y-109375400D03*
D12*
X82500600Y-80072600D03*
X82500600Y-81852600D03*
X79121000Y-81852600D03*
X79121000Y-80072600D03*
D10*
X154876200Y-83846000D03*
X156656200Y-83846000D03*
X156656200Y-87225600D03*
X154876200Y-87225600D03*
D13*
X161820400Y-100567400D03*
X162920400Y-100567400D03*
D10*
X216956600Y-100225600D03*
X215176600Y-100225600D03*
X215176600Y-96846000D03*
X216956600Y-96846000D03*
D13*
X167162200Y-127762000D03*
X166062200Y-127762000D03*
D11*
X182284000Y-121293800D03*
X182284000Y-122393800D03*
D10*
X180596200Y-87225600D03*
X178816200Y-87225600D03*
X178816200Y-83846000D03*
X180596200Y-83846000D03*
X136527000Y-87225600D03*
X134747000Y-87225600D03*
X134747000Y-83846000D03*
X136527000Y-83846000D03*
X154876200Y-105995800D03*
X156656200Y-105995800D03*
X156656200Y-109375400D03*
X154876200Y-109375400D03*
D12*
X162930600Y-80072600D03*
X162930600Y-81852600D03*
X159551000Y-81852600D03*
X159551000Y-80072600D03*
D11*
X153226400Y-97984400D03*
X153226400Y-96884400D03*
D10*
X136527000Y-93725600D03*
X134747000Y-93725600D03*
X134747000Y-90346000D03*
X136527000Y-90346000D03*
D12*
X131861400Y-102222400D03*
X131861400Y-104002400D03*
X128481800Y-104002400D03*
X128481800Y-102222400D03*
D13*
X94420600Y-100592800D03*
X95520600Y-100592800D03*
D11*
X182309400Y-108263600D03*
X182309400Y-109363600D03*
X182249800Y-99145000D03*
X182249800Y-100245000D03*
D13*
X124253600Y-100592800D03*
X125353600Y-100592800D03*
D11*
X109182600Y-107077600D03*
X109182600Y-105977600D03*
D12*
X212291000Y-80072600D03*
X212291000Y-81852600D03*
X208911400Y-81852600D03*
X208911400Y-80072600D03*
D10*
X146576200Y-112599800D03*
X144796200Y-112599800D03*
X144796200Y-109220200D03*
X146576200Y-109220200D03*
D12*
X118861400Y-80072600D03*
X118861400Y-81852600D03*
X115481800Y-81852600D03*
X115481800Y-80072600D03*
X199291000Y-80072600D03*
X199291000Y-81852600D03*
X195911400Y-81852600D03*
X195911400Y-80072600D03*
D10*
X146576200Y-96975100D03*
X144796200Y-96975100D03*
X144796200Y-93595500D03*
X146576200Y-93595500D03*
X110807000Y-96846000D03*
X112587000Y-96846000D03*
X112587000Y-100225600D03*
X110807000Y-100225600D03*
D13*
X123093000Y-127762000D03*
X121993000Y-127762000D03*
D11*
X101854000Y-121293800D03*
X101854000Y-122393800D03*
D13*
X174850600Y-100592800D03*
X175950600Y-100592800D03*
D12*
X118861400Y-102222400D03*
X118861400Y-104002400D03*
X115481800Y-104002400D03*
X115481800Y-102222400D03*
D10*
X180596200Y-100225600D03*
X178816200Y-100225600D03*
X178816200Y-96846000D03*
X180596200Y-96846000D03*
D13*
X198180800Y-100567400D03*
X199280800Y-100567400D03*
D10*
X100166200Y-109375400D03*
X98386200Y-109375400D03*
X98386200Y-105995800D03*
X100166200Y-105995800D03*
D12*
X199291000Y-102222400D03*
X199291000Y-104002400D03*
X195911400Y-104002400D03*
X195911400Y-102222400D03*
D11*
X148226200Y-95870000D03*
X148226200Y-96970000D03*
X72821800Y-107077600D03*
X72821800Y-105977600D03*
D12*
X89000600Y-102222400D03*
X89000600Y-104002400D03*
X85621000Y-104002400D03*
X85621000Y-102222400D03*
D13*
X204683200Y-78435200D03*
X205783200Y-78435200D03*
X116565200Y-127762000D03*
X115465200Y-127762000D03*
D11*
X138214800Y-121293800D03*
X138214800Y-122393800D03*
X138180600Y-99145000D03*
X138180600Y-100245000D03*
X153226400Y-120107800D03*
X153226400Y-119007800D03*
D10*
X136527000Y-109375400D03*
X134747000Y-109375400D03*
X134747000Y-105995800D03*
X136527000Y-105995800D03*
X180596200Y-122375400D03*
X178816200Y-122375400D03*
X178816200Y-118995800D03*
X180596200Y-118995800D03*
D13*
X198180800Y-78409800D03*
X199280800Y-78409800D03*
D11*
X218617800Y-120938200D03*
X218617800Y-122038200D03*
X153251800Y-91482000D03*
X153251800Y-90382000D03*
X182284000Y-114766000D03*
X182284000Y-115866000D03*
D12*
X95500600Y-80072600D03*
X95500600Y-81852600D03*
X92121000Y-81852600D03*
X92121000Y-80072600D03*
D11*
X72796400Y-120107800D03*
X72796400Y-119007800D03*
X153251800Y-84954200D03*
X153251800Y-83854200D03*
X153251800Y-107077600D03*
X153251800Y-105977600D03*
D12*
X195911400Y-126152200D03*
X195911400Y-124372200D03*
X199291000Y-124372200D03*
X199291000Y-126152200D03*
D13*
X86732200Y-127762000D03*
X85632200Y-127762000D03*
D10*
X216956600Y-87225600D03*
X215176600Y-87225600D03*
X215176600Y-83846000D03*
X216956600Y-83846000D03*
X154876200Y-96846000D03*
X156656200Y-96846000D03*
X156656200Y-100225600D03*
X154876200Y-100225600D03*
X216956600Y-122375400D03*
X215176600Y-122375400D03*
X215176600Y-118995800D03*
X216956600Y-118995800D03*
D12*
X169430600Y-102222400D03*
X169430600Y-104002400D03*
X166051000Y-104002400D03*
X166051000Y-102222400D03*
X175930600Y-80072600D03*
X175930600Y-81852600D03*
X172551000Y-81852600D03*
X172551000Y-80072600D03*
D13*
X161820400Y-78409800D03*
X162920400Y-78409800D03*
X204683200Y-100592800D03*
X205783200Y-100592800D03*
D11*
X101845200Y-86114800D03*
X101845200Y-87214800D03*
D13*
X87892800Y-100592800D03*
X88992800Y-100592800D03*
D11*
X72821800Y-113605400D03*
X72821800Y-112505400D03*
D12*
X125361400Y-102222400D03*
X125361400Y-104002400D03*
X121981800Y-104002400D03*
X121981800Y-102222400D03*
D13*
X174850600Y-78435200D03*
X175950600Y-78435200D03*
X81390400Y-100567400D03*
X82490400Y-100567400D03*
D12*
X82500600Y-102222400D03*
X82500600Y-104002400D03*
X79121000Y-104002400D03*
X79121000Y-102222400D03*
X125361400Y-80072600D03*
X125361400Y-81852600D03*
X121981800Y-81852600D03*
X121981800Y-80072600D03*
D10*
X216956600Y-115875400D03*
X215176600Y-115875400D03*
X215176600Y-112495800D03*
X216956600Y-112495800D03*
D11*
X138214800Y-114766000D03*
X138214800Y-115866000D03*
D10*
X154876200Y-118995800D03*
X156656200Y-118995800D03*
X156656200Y-122375400D03*
X154876200Y-122375400D03*
D11*
X189612200Y-84954200D03*
X189612200Y-83854200D03*
D10*
X74446200Y-83846000D03*
X76226200Y-83846000D03*
X76226200Y-87225600D03*
X74446200Y-87225600D03*
X154876200Y-112495800D03*
X156656200Y-112495800D03*
X156656200Y-115875400D03*
X154876200Y-115875400D03*
D11*
X218610200Y-92617200D03*
X218610200Y-93717200D03*
D10*
X74446200Y-112495800D03*
X76226200Y-112495800D03*
X76226200Y-115875400D03*
X74446200Y-115875400D03*
X136527000Y-100225600D03*
X134747000Y-100225600D03*
X134747000Y-96846000D03*
X136527000Y-96846000D03*
D11*
X182275200Y-86114800D03*
X182275200Y-87214800D03*
D13*
X130781400Y-100592800D03*
X131881400Y-100592800D03*
D12*
X172551000Y-126152200D03*
X172551000Y-124372200D03*
X175930600Y-124372200D03*
X175930600Y-126152200D03*
X131861400Y-80072600D03*
X131861400Y-81852600D03*
X128481800Y-81852600D03*
X128481800Y-80072600D03*
D11*
X109182600Y-91482000D03*
X109182600Y-90382000D03*
D13*
X81390400Y-78409800D03*
X82490400Y-78409800D03*
D12*
X128481800Y-126152200D03*
X128481800Y-124372200D03*
X131861400Y-124372200D03*
X131861400Y-126152200D03*
D13*
X129595400Y-127787400D03*
X128495400Y-127787400D03*
D11*
X218644400Y-114766000D03*
X218644400Y-115866000D03*
D13*
X196994800Y-127762000D03*
X195894800Y-127762000D03*
X130781400Y-78435200D03*
X131881400Y-78435200D03*
D10*
X74446200Y-118995800D03*
X76226200Y-118995800D03*
X76226200Y-122375400D03*
X74446200Y-122375400D03*
D11*
X109157200Y-120107800D03*
X109157200Y-119007800D03*
M02*
